# xmcd
#
# Track frame offsets:
#	150
#	16179
#	37711
#	51732
#	64508
#	77309
#	93795
#	110305
#	128309
#	143818
#	172248
#	180893
#	181938
#
# Disc length: 2609 seconds
#
# Revision: 1
# Processed by: cddbd v1.5PL3 Copyright (c) Steve Scherf et al.
# Submitted via: audiograbber 1.80
#
DISCID=910a2f0d
DTITLE=Belinda Gail - Blessed Trails
DYEAR=1900
DGENRE=
TTITLE0=Wings of a Dove
TTITLE1=Old Rugged Cross
TTITLE2=I Rejoice
TTITLE3=In the Garden
TTITLE4=Detour
TTITLE5=Known Only to Him
TTITLE6=The Gift
TTITLE7=If That Isn't Love
TTITLE8=Medley - Have Thine Own Way, Nothing But the Blood, Power In the Blood
TTITLE9=What a Friend We Have in Jesus
TTITLE10=Blessed Trails
TTITLE11=Greeting
TTITLE12=Haven of Rest
EXTD=
EXTT0=
EXTT1=
EXTT2=
EXTT3=
EXTT4=
EXTT5=
EXTT6=
EXTT7=
EXTT8=
EXTT9=
EXTT10=
EXTT11=
EXTT12=
PLAYORDER=
